<svg width="46" height="46" viewBox="0 0 46 46" fill="none" xmlns="http://www.w3.org/2000/svg">
<rect width="46" height="46" rx="23" fill="#EEF7FF"/>
<path d="M30.7778 14.2H29.6667V12H27.4444V14.2H18.5556V12H16.3333V14.2H15.2222C14 14.2 13 15.19 13 16.4V31.8C13 33.021 14 34 15.2222 34H30.7778C32.0111 34 33 33.021 33 31.8V16.4C33 15.19 32.0111 14.2 30.7778 14.2ZM30.7778 31.8H15.2222V20.8H30.7778V31.8ZM15.2222 18.6V16.4H30.7778V18.6H15.2222ZM21.4 30.106L28 23.583L26.8111 22.417L21.4 27.774L19.0556 25.453L17.8778 26.619L21.4 30.106Z" fill="#2485FF"/>
</svg>
