<svg width="46" height="46" viewBox="0 0 46 46" fill="none" xmlns="http://www.w3.org/2000/svg">
<rect width="46" height="46" rx="23" fill="#FEFCE8"/>
<path d="M16 12V14H15C13.89 14 13 14.89 13 16V30C13 31.1 13.89 32 15 32H21.1C22.36 33.24 24.09 34 26 34C29.87 34 33 30.87 33 27C33 25.09 32.24 23.36 31 22.1V16C31 14.9 30.11 14 29 14H28V12H26V14H18V12M15 16H29V18H15M15 20H29V20.67C28.09 20.24 27.07 20 26 20C22.13 20 19 23.13 19 27C19 28.07 19.24 29.09 19.67 30H15M26 22.15C28.68 22.15 30.85 24.32 30.85 27C30.85 29.68 28.68 31.85 26 31.85C23.32 31.85 21.15 29.68 21.15 27C21.15 24.32 23.32 22.15 26 22.15ZM25 24V27.69L28.19 29.53L28.94 28.23L26.5 26.82V24H25Z" fill="#F59E0B"/>
</svg>
