<svg width="46" height="46" viewBox="0 0 46 46" fill="none" xmlns="http://www.w3.org/2000/svg">
<rect width="46" height="46" rx="23" fill="#EEFBF5"/>
<path d="M26 23H27.5V27.25L30.36 28.94L29.61 30.16L26 28V23ZM27 20C27.69 20 28.37 20.1 29 20.29V15.7L26 16.86V20.07C26.33 20 26.66 20 27 20ZM34 27C34 28.8565 33.2625 30.637 31.9497 31.9497C30.637 33.2625 28.8565 34 27 34C24 34 21.4 32.08 20.42 29.4L19 28.9L13.66 30.97L13.5 31C13.3674 31 13.2402 30.9473 13.1464 30.8536C13.0527 30.7598 13 30.6326 13 30.5V15.38C13 15.15 13.15 14.97 13.36 14.9L19 13L25 15.1L30.34 13.03L30.5 13C30.6326 13 30.7598 13.0527 30.8536 13.1464C30.9473 13.2402 31 13.3674 31 13.5V21.25C32.81 22.5 34 24.62 34 27ZM20 27C20 24.21 21.63 21.8 24 20.67V16.87L20 15.47V27.13C20 27.09 20 27.04 20 27ZM27 22C25.6739 22 24.4021 22.5268 23.4645 23.4645C22.5268 24.4021 22 25.6739 22 27C22 28.3261 22.5268 29.5979 23.4645 30.5355C24.4021 31.4732 25.6739 32 27 32C28.3261 32 29.5979 31.4732 30.5355 30.5355C31.4732 29.5979 32 28.3261 32 27C32 25.6739 31.4732 24.4021 30.5355 23.4645C29.5979 22.5268 28.3261 22 27 22ZM15 16.46V28.31L18 27.15V15.45L15 16.46Z" fill="#169870"/>
</svg>
