<svg width="46" height="46" viewBox="0 0 46 46" fill="none" xmlns="http://www.w3.org/2000/svg">
<rect width="46" height="46" rx="23" fill="#EEFBF5"/>
<path d="M30.7778 31.8V19.7H15.2222V31.8H30.7778ZM27.4444 12H29.6667V14.2H30.7778C32.0111 14.2 33 15.19 33 16.4V31.8C33 33.021 32.0111 34 30.7778 34H15.2222C14 34 13 33.021 13 31.8V16.4C13 15.19 14 14.2 15.2222 14.2H16.3333V12H18.5556V14.2H27.4444V12ZM23 29.787L22.3556 29.204C20.0667 27.147 18.5556 25.794 18.5556 24.133C18.5556 22.78 19.6333 21.713 21 21.713C21.7778 21.713 22.5111 22.065 23 22.626C23.4889 22.065 24.2222 21.713 25 21.713C26.3667 21.713 27.4444 22.78 27.4444 24.133C27.4444 25.794 25.9333 27.147 23.6444 29.204L23 29.787Z" fill="#169870"/>
</svg>
