<svg width="46" height="46" viewBox="0 0 46 46" fill="none" xmlns="http://www.w3.org/2000/svg">
<rect width="46" height="46" rx="23" fill="#F0F9FF"/>
<path d="M21.74 23.25L23 20.5L24.25 23.25L27 24.5L24.25 25.76L23 28.5L21.74 25.76L19 24.5L21.74 23.25ZM27 14V12H29V14H30C30.53 14 31.04 14.21 31.41 14.59C31.79 14.96 32 15.47 32 16V30C32 30.53 31.79 31.04 31.41 31.41C31.04 31.79 30.53 32 30 32H16C15.47 32 14.96 31.79 14.59 31.41C14.21 31.04 14 30.53 14 30V16C14 15.47 14.21 14.96 14.59 14.59C14.96 14.21 15.47 14 16 14H17V12H19V14H27ZM16 19V30H30V19H16Z" fill="#0EA5E9"/>
</svg>
