<svg width="47" height="46" viewBox="0 0 47 46" fill="none" xmlns="http://www.w3.org/2000/svg">
<rect x="0.333374" width="46" height="46" rx="23" fill="#ECFEFF"/>
<path d="M22.0734 23.25L23.3334 20.5L24.5834 23.25L27.3334 24.5L24.5834 25.76L23.3334 28.5L22.0734 25.76L19.3334 24.5L22.0734 23.25ZM27.3334 14V12H29.3334V14H30.3334C30.8634 14 31.3734 14.21 31.7434 14.59C32.1234 14.96 32.3334 15.47 32.3334 16V30C32.3334 30.53 32.1234 31.04 31.7434 31.41C31.3734 31.79 30.8634 32 30.3334 32H16.3334C15.8034 32 15.2934 31.79 14.9234 31.41C14.5434 31.04 14.3334 30.53 14.3334 30V16C14.3334 15.47 14.5434 14.96 14.9234 14.59C15.2934 14.21 15.8034 14 16.3334 14H17.3334V12H19.3334V14H27.3334ZM16.3334 19V30H30.3334V19H16.3334Z" fill="#06B6D4"/>
</svg>
