<svg width="46" height="46" viewBox="0 0 46 46" fill="none" xmlns="http://www.w3.org/2000/svg">
<rect width="46" height="46" rx="23" fill="#FFFBEB"/>
<path d="M15 15C14.4696 15 13.9609 15.2107 13.5858 15.5858C13.2107 15.9609 13 16.4696 13 17V21C14.11 21 15 21.9 15 23C15 23.5304 14.7893 24.0391 14.4142 24.4142C14.0391 24.7893 13.5304 25 13 25V29C13 29.5304 13.2107 30.0391 13.5858 30.4142C13.9609 30.7893 14.4696 31 15 31H31C31.5304 31 32.0391 30.7893 32.4142 30.4142C32.7893 30.0391 33 29.5304 33 29V25C32.4696 25 31.9609 24.7893 31.5858 24.4142C31.2107 24.0391 31 23.5304 31 23C31 21.89 31.9 21 33 21V17C33 15.89 32.1 15 31 15H15ZM26.5 18L28 19.5L19.5 28L18 26.5L26.5 18ZM19.81 18.04C20.79 18.04 21.58 18.83 21.58 19.81C21.58 20.2794 21.3935 20.7296 21.0616 21.0616C20.7296 21.3935 20.2794 21.58 19.81 21.58C18.83 21.58 18.04 20.79 18.04 19.81C18.04 19.3406 18.2265 18.8904 18.5584 18.5584C18.8904 18.2265 19.3406 18.04 19.81 18.04ZM26.19 24.42C27.17 24.42 27.96 25.21 27.96 26.19C27.96 26.6594 27.7735 27.1096 27.4416 27.4416C27.1096 27.7735 26.6594 27.96 26.19 27.96C25.21 27.96 24.42 27.17 24.42 26.19C24.42 25.7206 24.6065 25.2704 24.9384 24.9384C25.2704 24.6065 25.7206 24.42 26.19 24.42Z" fill="#F39F19"/>
</svg>
