<svg width="46" height="46" viewBox="0 0 46 46" fill="none" xmlns="http://www.w3.org/2000/svg">
<rect width="46" height="46" rx="23" fill="#EEFBF5"/>
<path d="M24 19.5H22V17.5H24V19.5ZM24 24H22V22H24V24ZM24 28.5H22V26.5H24V28.5ZM33 21V17C33 15.89 32.1 15 31 15H15C14.4696 15 13.9609 15.2107 13.5858 15.5858C13.2107 15.9609 13 16.4696 13 17V21C14.11 21 15 21.9 15 23C15 23.5304 14.7893 24.0391 14.4142 24.4142C14.0391 24.7893 13.5304 25 13 25V29C13 29.5304 13.2107 30.0391 13.5858 30.4142C13.9609 30.7893 14.4696 31 15 31H31C31.5304 31 32.0391 30.7893 32.4142 30.4142C32.7893 30.0391 33 29.5304 33 29V25C32.4696 25 31.9609 24.7893 31.5858 24.4142C31.2107 24.0391 31 23.5304 31 23C31 22.4696 31.2107 21.9609 31.5858 21.5858C31.9609 21.2107 32.4696 21 33 21Z" fill="#169870"/>
</svg>
