<svg width="46" height="46" viewBox="0 0 46 46" fill="none" xmlns="http://www.w3.org/2000/svg">
<rect width="46" height="46" rx="23" fill="#EFF6FF"/>
<path d="M31 13H13V19H31V13ZM29 17H15V15H29V17ZM27 20C25.69 20 24.46 20.37 23.41 21H19.5C19.22 21 19 21.22 19 21.5V23H21.26C20.47 24.13 20 25.5 20 27C20 27.7 20.11 28.37 20.29 29H16V20H14V31H21.26C22.53 32.81 24.62 34 27 34C30.87 34 34 30.87 34 27C34 23.13 30.87 20 27 20ZM27 32C24.24 32 22 29.76 22 27C22 24.24 24.24 22 27 22C29.76 22 32 24.24 32 27C32 29.76 29.76 32 27 32ZM27.5 27.25L30.36 28.94L29.61 30.16L26 28V23H27.5V27.25Z" fill="#3B82F6"/>
</svg>
