<svg width="46" height="46" viewBox="0 0 46 46" fill="none" xmlns="http://www.w3.org/2000/svg">
<rect width="46" height="46" rx="23" fill="#FFFBEB"/>
<path d="M27 23.2C27 24.71 25.64 25.94 23.58 27.81L23 28.34L22.42 27.81C20.36 25.94 19 24.71 19 23.2C19 21.97 19.97 21 21.2 21C21.9 21 22.56 21.32 23 21.83C23.44 21.32 24.1 21 24.8 21C26.03 21 27 21.97 27 23.2ZM32 16V30C32 31.11 31.11 32 30 32H16C14.9 32 14 31.11 14 30V16C14 14.9 14.9 14 16 14H17V12H19V14H27V12H29V14H30C31.11 14 32 14.9 32 16ZM16 16V18H30V16H16ZM30 30V20H16V30H30Z" fill="#F39F19"/>
</svg>
