<svg width="46" height="46" viewBox="0 0 46 46" fill="none" xmlns="http://www.w3.org/2000/svg">
<rect width="46" height="46" rx="23" fill="#EEF2FF"/>
<path d="M30.5 27C28.6 27 27 28.6 27 30.5C27 32.4 28.6 34 30.5 34C32.4 34 34 32.4 34 30.5C34 28.6 32.4 27 30.5 27ZM25 30.5C25 30.33 25 30.17 25.03 30H16V20H30V25.03C30.17 25 30.33 25 30.5 25C31 25 31.5 25.08 32 25.21V16C32 14.9 31.11 14 30 14H29V12H27V14H19V12H17V14H16C14.89 14 14 14.9 14 16V30C14 31.11 14.9 32 16 32H25.21C25.08 31.5 25 31 25 30.5ZM16 16H30V18H16V16Z" fill="#6366F1"/>
</svg>
