<svg width="46" height="46" viewBox="0 0 46 46" fill="none" xmlns="http://www.w3.org/2000/svg">
<rect width="46" height="46" rx="23" fill="#FFF1F1"/>
<path d="M18.3201 21.56L19.3801 20.5L18.3201 19.44L19.3801 18.38L21.5001 20.5L19.3801 22.62L18.3201 21.56ZM15.5001 20C15.5301 20 15.5501 20 15.5801 20C16.7701 17.07 19.6401 15 23.0001 15C25.1901 15 27.1601 15.88 28.6101 17.3C28.7601 16.7 29.0601 16 29.4201 15.34C27.6801 13.88 25.4401 13 23.0001 13C18.1101 13 14.0501 16.5 13.1801 21.14C13.7401 20.44 14.5901 20 15.5001 20ZM32.0001 21.5C31.5801 21.5 31.1801 21.41 30.8101 21.28C30.9301 21.83 31.0001 22.41 31.0001 23C31.0001 27.42 27.4201 31 23.0001 31C19.6401 31 16.7701 28.93 15.5801 26C15.5501 26 15.5301 26 15.5001 26C15.0001 26 14.4601 25.86 14.0001 25.6C13.6801 25.42 13.4101 25.18 13.1801 24.9C14.0701 29.5 18.1101 33 23.0001 33C28.5001 33 33.0001 28.5 33.0001 23C33.0001 22.45 32.9401 21.91 32.8601 21.38C32.5801 21.45 32.3001 21.5 32.0001 21.5ZM32.0001 14C32.0001 14 30.0001 16.9 30.0001 18C30.0001 19.1 30.9001 20 32.0001 20C33.1001 20 34.0001 19.1 34.0001 18C34.0001 16.9 32.0001 14 32.0001 14ZM26.6201 18.38L24.5001 20.5L26.6201 22.62L27.6801 21.56L26.6201 20.5L27.6801 19.44L26.6201 18.38ZM19.5601 28C20.2501 26.81 21.5301 26 23.0001 26C24.4701 26 25.7501 26.81 26.4401 28H28.1201C27.3201 25.95 25.3301 24.5 23.0001 24.5C22.1301 24.5 21.3001 24.7 20.5701 25.07L17.0001 23C17.0001 22.5 16.7301 22 16.2501 21.71C15.5301 21.3 14.6201 21.54 14.2001 22.26C13.7901 23 14.0301 23.89 14.7501 24.31C15.2301 24.59 15.8001 24.56 16.2401 24.31L19.2101 26.03C18.6401 26.56 18.1801 27.24 17.8801 28H19.5601Z" fill="#E91919"/>
</svg>
