<svg width="46" height="46" viewBox="0 0 46 46" fill="none" xmlns="http://www.w3.org/2000/svg">
<rect width="46" height="46" rx="23" fill="#FFFBEB"/>
<path d="M18.9406 29.8095C20.0297 29.8095 20.9208 30.7524 20.9208 31.9048C20.9208 33.0571 20.0297 34 18.9406 34C17.8515 34 16.9604 33.0571 16.9604 31.9048C16.9604 30.7524 17.8515 29.8095 18.9406 29.8095ZM28.8416 29.8095C29.9307 29.8095 30.8218 30.7524 30.8218 31.9048C30.8218 33.0571 29.9307 34 28.8416 34C27.7525 34 26.8614 33.0571 26.8614 31.9048C26.8614 30.7524 27.7525 29.8095 28.8416 29.8095ZM19.1386 26.4571C19.1386 26.5619 19.2376 26.6667 19.3366 26.6667H30.8218V28.7619H18.9406C17.8515 28.7619 16.9604 27.819 16.9604 26.6667C16.9604 26.2476 17.0594 25.9333 17.1584 25.619L18.4455 23.1048L14.9802 15.1429H13V13.0476H16.2673L20.5248 22.4762H27.4554L31.3168 15.1429L33 16.1905L29.1386 23.5238C28.8416 24.1524 28.1485 24.5714 27.4554 24.5714H20.0297L19.1386 26.2476V26.4571ZM21.3168 12C22.1089 12 22.703 12.6286 22.703 13.4667C22.703 14.3048 22.1089 14.9333 21.3168 14.9333C20.5248 14.9333 19.9307 14.3048 19.9307 13.4667C19.9307 12.6286 20.6238 12 21.3168 12ZM26.4653 20.381C25.6733 20.381 25.0792 19.7524 25.0792 18.9143C25.0792 18.0762 25.6733 17.4476 26.4653 17.4476C27.2574 17.4476 27.8515 18.0762 27.8515 18.9143C27.8515 19.7524 27.1584 20.381 26.4653 20.381ZM21.1188 20.381L19.9307 19.1238L26.6634 12L27.8515 13.2571L21.1188 20.381Z" fill="#F39F19"/>
</svg>
