<svg width="47" height="46" viewBox="0 0 47 46" fill="none" xmlns="http://www.w3.org/2000/svg">
<rect x="0.666656" width="46" height="46" rx="23" fill="#F5F3FF"/>
<path d="M19.6073 29.8095C20.6964 29.8095 21.5874 30.7524 21.5874 31.9048C21.5874 33.0571 20.6964 34 19.6073 34C18.5181 34 17.6271 33.0571 17.6271 31.9048C17.6271 30.7524 18.5181 29.8095 19.6073 29.8095ZM29.5082 29.8095C30.5973 29.8095 31.4884 30.7524 31.4884 31.9048C31.4884 33.0571 30.5973 34 29.5082 34C28.4191 34 27.528 33.0571 27.528 31.9048C27.528 30.7524 28.4191 29.8095 29.5082 29.8095ZM19.8053 26.4571C19.8053 26.5619 19.9043 26.6667 20.0033 26.6667H31.4884V28.7619H19.6073C18.5181 28.7619 17.6271 27.819 17.6271 26.6667C17.6271 26.2476 17.7261 25.9333 17.8251 25.619L19.1122 23.1048L15.6469 15.1429H13.6667V13.0476H16.934L21.1914 22.4762H28.1221L31.9835 15.1429L33.6667 16.1905L29.8053 23.5238C29.5082 24.1524 28.8152 24.5714 28.1221 24.5714H20.6964L19.8053 26.2476V26.4571ZM21.9835 12C22.7756 12 23.3696 12.6286 23.3696 13.4667C23.3696 14.3048 22.7756 14.9333 21.9835 14.9333C21.1914 14.9333 20.5973 14.3048 20.5973 13.4667C20.5973 12.6286 21.2904 12 21.9835 12ZM27.132 20.381C26.3399 20.381 25.7459 19.7524 25.7459 18.9143C25.7459 18.0762 26.3399 17.4476 27.132 17.4476C27.9241 17.4476 28.5181 18.0762 28.5181 18.9143C28.5181 19.7524 27.8251 20.381 27.132 20.381ZM21.7855 20.381L20.5973 19.1238L27.33 12L28.5181 13.2571L21.7855 20.381Z" fill="#8B5CF6"/>
</svg>
