<svg width="46" height="46" viewBox="0 0 46 46" fill="none" xmlns="http://www.w3.org/2000/svg">
<rect width="46" height="46" rx="23" fill="#FFF1F1"/>
<path d="M21.8889 28.5H24.1111V30.7H21.8889V28.5ZM21.8889 21.9H24.1111V26.3H21.8889V21.9ZM30.7778 14.2H29.6667V12H27.4444V14.2H18.5556V12H16.3333V14.2H15.2222C14 14.2 13 15.19 13 16.4V31.8C13 33.01 14 34 15.2222 34H30.7778C32 34 33 33.01 33 31.8V16.4C33 15.19 32 14.2 30.7778 14.2ZM30.7778 16.4V18.6H15.2222V16.4H30.7778ZM15.2222 31.8V20.8H30.7778V31.8H15.2222Z" fill="#E91919"/>
</svg>
