<svg width="46" height="46" viewBox="0 0 46 46" fill="none" xmlns="http://www.w3.org/2000/svg">
<rect width="46" height="46" rx="23" fill="#FFF1F1"/>
<path d="M23 13C21.6868 13 20.3864 13.2587 19.1732 13.7612C17.9599 14.2638 16.8575 15.0003 15.9289 15.9289C14.0536 17.8043 13 20.3478 13 23C13 25.6522 14.0536 28.1957 15.9289 30.0711C16.8575 30.9997 17.9599 31.7362 19.1732 32.2388C20.3864 32.7413 21.6868 33 23 33C25.6522 33 28.1957 31.9464 30.0711 30.0711C31.9464 28.1957 33 25.6522 33 23C33 21.6868 32.7413 20.3864 32.2388 19.1732C31.7362 17.9599 30.9997 16.8575 30.0711 15.9289C29.1425 15.0003 28.0401 14.2638 26.8268 13.7612C25.6136 13.2587 24.3132 13 23 13ZM27.2 27.2L22 24V18H23.5V23.2L28 25.9L27.2 27.2Z" fill="#E91919"/>
</svg>
