<svg width="46" height="46" viewBox="0 0 46 46" fill="none" xmlns="http://www.w3.org/2000/svg">
<rect width="46" height="46" rx="23" fill="#EFF6FF"/>
<path d="M32 28V19H18V28H32ZM32 14C32.5304 14 33.0391 14.2107 33.4142 14.5858C33.7893 14.9609 34 15.4696 34 16V28C34 28.5304 33.7893 29.0391 33.4142 29.4142C33.0391 29.7893 32.5304 30 32 30H18C16.89 30 16 29.1 16 28V16C16 15.4696 16.2107 14.9609 16.5858 14.5858C16.9609 14.2107 17.4696 14 18 14H19V12H21V14H29V12H31V14H32ZM14 32H28V34H14C12.89 34 12 33.1 12 32V20H14V32ZM30 26H26V22H30V26Z" fill="#3B82F6"/>
</svg>
